<?xml version="1.0" encoding="UTF-8" standalone="no"?><!-- Generator: Gravit.io --><svg xmlns="http://www.w3.org/2000/svg" xmlns:xlink="http://www.w3.org/1999/xlink" style="isolation:isolate" viewBox="434.051 91.931 178.311 151.154" width="178.311pt" height="151.154pt"><defs><clipPath id="_clipPath_D3LAWM4Oav3NvrYBwWYh9IIaaxQmtWLD"><rect x="434.051" y="91.931" width="178.311" height="151.154"/></clipPath></defs><g clip-path="url(#_clipPath_D3LAWM4Oav3NvrYBwWYh9IIaaxQmtWLD)"><g><path d=" M 520.221 143.471 L 520.802 231.843 C 520.955 235.188 522.677 238.637 525.032 240.126 C 528.505 241.831 531.212 242.169 533.933 240.456 C 536.905 239.159 538.316 235.397 538.244 231.843" fill="none" vector-effect="non-scaling-stroke" stroke-width="1" stroke="rgb(92,58,142)" stroke-linejoin="miter" stroke-linecap="square" stroke-miterlimit="3"/><path d=" M 449 146.959 C 449.422 140.492 456.986 131.002 463.535 125.448 C 464.55 124.309 471.523 118.079 490.061 111.058 C 498.998 107.285 509.491 107.336 519.93 106.843 C 530.604 107.335 540.05 107.84 549.722 110.446 C 557.938 111.44 567.985 115.602 578.36 122.541 C 586.694 127.192 596.096 140.179 599 146.378 C 590.214 139.77 580.723 136.288 571.674 142.89 C 561.998 136.308 554.639 137.283 546.093 144.052 C 537.66 136.879 528.269 136.597 520.221 143.762 C 512.82 137.128 504.977 136.746 496.674 143.18 C 490.02 136.865 480.439 136.973 473.128 143.471 C 466.664 137.134 455.142 140.825 449 146.959 Z " fill="rgb(210,179,255)" vector-effect="non-scaling-stroke" stroke-width="1" stroke="rgb(121,82,179)" stroke-linejoin="miter" stroke-linecap="square" stroke-miterlimit="3"/><g filter="url(#KpIYROqJJDZXVEp9BPmAOHUTH4ZBXF5q)"><path d=" M 449.551 145.701 C 467.368 126.868 490.863 114.117 520.017 107.431" fill="none" vector-effect="non-scaling-stroke" stroke-width="1" stroke="rgb(121,82,179)" stroke-linejoin="miter" stroke-linecap="square" stroke-miterlimit="3"/><path d=" M 473.546 143.575 C 481.194 133.305 496.586 121.26 519.713 107.431" fill="none" vector-effect="non-scaling-stroke" stroke-width="1" stroke="rgb(121,82,179)" stroke-linejoin="miter" stroke-linecap="square" stroke-miterlimit="3"/><path d=" M 496.933 143.575 C 499.751 133.119 507.448 121.175 520.017 107.735" fill="none" vector-effect="non-scaling-stroke" stroke-width="1" stroke="rgb(121,82,179)" stroke-linejoin="miter" stroke-linecap="square" stroke-miterlimit="3"/><line x1="520.321" y1="143.575" x2="519.713" y2="108.038" vector-effect="non-scaling-stroke" stroke-width="1" stroke="rgb(121,82,179)" stroke-linejoin="miter" stroke-linecap="square" stroke-miterlimit="3"/><path d=" M 546.442 144.183 C 541.38 132.293 532.574 120.247 520.017 108.038" fill="none" vector-effect="non-scaling-stroke" stroke-width="1" stroke="rgb(121,82,179)" stroke-linejoin="miter" stroke-linecap="square" stroke-miterlimit="3"/><path d=" M 571.651 142.664 C 559.808 130.853 542.6 119.314 520.017 108.038" fill="none" vector-effect="non-scaling-stroke" stroke-width="1" stroke="rgb(121,82,179)" stroke-linejoin="miter" stroke-linecap="square" stroke-miterlimit="3"/><path d=" M 596.861 143.879 C 577.829 127.238 552.319 115.193 520.321 107.735" fill="none" vector-effect="non-scaling-stroke" stroke-width="1" stroke="rgb(121,82,179)" stroke-linejoin="miter" stroke-linecap="square" stroke-miterlimit="3"/></g><defs><filter id="KpIYROqJJDZXVEp9BPmAOHUTH4ZBXF5q" x="-200%" y="-200%" width="400%" height="400%" filterUnits="objectBoundingBox" color-interpolation-filters="sRGB"><feGaussianBlur xmlns="http://www.w3.org/2000/svg" in="SourceGraphic" stdDeviation="2.146804531419514"/><feOffset xmlns="http://www.w3.org/2000/svg" dx="0" dy="0" result="pf_100_offsetBlur"/><feFlood xmlns="http://www.w3.org/2000/svg" flood-color="#251242" flood-opacity="0.65"/><feComposite xmlns="http://www.w3.org/2000/svg" in2="pf_100_offsetBlur" operator="in" result="pf_100_dropShadow"/><feBlend xmlns="http://www.w3.org/2000/svg" in="SourceGraphic" in2="pf_100_dropShadow" mode="normal"/></filter></defs><path d=" M 516.26 106.879 L 519.712 103.5 L 523.164 106.879 C 522.922 107.994 521.605 109.026 520.003 109.169 C 518.501 109.411 517.184 107.997 516.26 106.879 Z " fill="rgb(121,82,179)" vector-effect="non-scaling-stroke" stroke-width="3" stroke="rgb(121,82,179)" stroke-linejoin="miter" stroke-linecap="square" stroke-miterlimit="3"/></g></g></svg>